# xmcd
#
# Track frame offsets:
# 150
# 16323
# 35135
# 51735
# 73492
# 88437
# 104276
# 118121
# 130915
# 149184
# 164370
# 180527
# 197776
# 213866
#
# Disc length: 3041 seconds
#
# Revision: 2
# Processed by: cddbd v1.5.2PL0 Copyright (c) Steve Scherf et al.
# Submitted via: Axialis_AX_CDPlayer 2.6
#
DISCID=e60bdf0e
DTITLE=Chitãozinho and Xororó - De Coração para Coração Vol 4
DYEAR=2008
DGENRE=Country
TTITLE0=Coração Sertanejo
TTITLE1=No Rancho Fundo
TTITLE2=Fogão de Lenha
TTITLE3=Somos Assim
TTITLE4=Tenho Ciúme de Tudo
TTITLE5=Deixei de Ser Cowboy por Ela
TTITLE6=É Amor, é Paixão
TTITLE7=Na Aba do Meu Chapéu
TTITLE8=Peão de Rodeio
TTITLE9=Alô
TTITLE10=Pagina de Amigos
TTITLE11=Eu Menti
TTITLE12=Faz Um Ano
TTITLE13=Chico Mineiro
EXTD=
EXTT0=
EXTT1=
EXTT2=
EXTT3=
EXTT4=
EXTT5=
EXTT6=
EXTT7=
EXTT8=
EXTT9=
EXTT10=
EXTT11=
EXTT12=
EXTT13=
PLAYORDER=
